<?xml version="1.0" encoding="utf-8"?>
<!-- Generator: Adobe Illustrator 16.0.4, SVG Export Plug-In . SVG Version: 6.00 Build 0)  -->
<!DOCTYPE svg PUBLIC "-//W3C//DTD SVG 1.1//EN" "http://www.w3.org/Graphics/SVG/1.1/DTD/svg11.dtd">
<svg version="1.1" id="Capa_1" xmlns="http://www.w3.org/2000/svg" xmlns:xlink="http://www.w3.org/1999/xlink" x="0px" y="0px"
	 width="100px" height="100px" viewBox="0 0 100 100" enable-background="new 0 0 100 100" xml:space="preserve">
<g>
	<g>
		<path d="M82.812,0c-0.005,0-0.01,0-0.013,0c-3.752,0-7.317,1.185-10.312,3.433L52.014,23.909c-3.31,3.378-5.13,7.65-5.126,12.035
			c0.001,2.389,0.486,4.705,1.438,6.875l0,0c0.092,0.211,0.188,0.418,0.289,0.625l2.804-1.381c-0.079-0.163-0.156-0.327-0.228-0.494
			l-1.433,0.624l1.431-0.627c-0.779-1.776-1.175-3.67-1.176-5.629c-0.001-3.56,1.501-7.058,4.223-9.836L74.453,5.866
			c2.43-1.797,5.313-2.741,8.348-2.741c0.004,0,0.007,0,0.012,0c3.751,0,7.281,1.45,9.936,4.102
			c2.659,2.655,4.123,6.178,4.127,9.935c0.001,3.034-0.944,5.917-2.741,8.35L75.478,44.19l-0.144,0.169
			C72.648,47.94,68.548,50,64.084,50c-0.003,0-0.006,0-0.011,0c-1.948,0-3.836-0.396-5.609-1.169L57.215,51.7
			c2.171,0.942,4.477,1.425,6.859,1.425c0.004,0,0.008,0,0.013,0c5.419,0,10.397-2.484,13.677-6.798l18.661-18.688l0.144-0.169
			c2.247-2.995,3.435-6.564,3.432-10.319c-0.004-4.59-1.794-8.892-5.043-12.137C91.711,1.773,87.398,0,82.812,0z"/>
		<path d="M48.857,58.44c0.778,1.773,1.172,3.666,1.173,5.622c0.001,3.034-0.945,5.92-2.742,8.354L28.632,91.097l-0.144,0.153
			c-2.683,3.58-6.783,5.625-11.247,5.625c-0.003,0-0.006,0-0.011,0c-3.751,0-7.281-1.45-9.936-4.102
			c-2.659-2.654-4.124-6.178-4.126-9.935c-0.001-3.56,1.5-7.055,4.223-9.831l20.217-20.252c2.431-1.8,5.316-2.756,8.35-2.756
			c0.003,0,0.006,0,0.011,0c1.95,0,3.838,0.396,5.609,1.17l1.252-2.864c-2.17-0.948-4.479-1.431-6.863-1.431
			c-0.003,0-0.008,0-0.012,0c-3.753,0-7.319,1.2-10.311,3.45L5.17,70.81c-3.31,3.375-5.13,7.649-5.126,12.036
			c0.003,4.59,1.793,8.894,5.042,12.139C8.333,98.227,12.645,100,17.231,100c0.004,0,0.009,0,0.012,0
			c5.419,0,10.397-2.469,13.675-6.781l18.661-18.682l0.144-0.164c2.247-2.995,3.434-6.561,3.431-10.315
			c-0.002-2.389-0.484-4.701-1.436-6.87L48.857,58.44z"/>
		<path d="M34.864,62.971l28.105-28.144l2.211,2.208L37.076,65.178L34.864,62.971z"/>
	</g>
</g>
<g>
	<g>
		<path d="M82.812,0c-0.005,0-0.01,0-0.013,0c-3.752,0-7.317,1.185-10.312,3.433L52.014,23.909c-3.31,3.378-5.13,7.65-5.126,12.035
			c0.001,2.389,0.486,4.705,1.438,6.875l0,0c0.092,0.211,0.188,0.418,0.289,0.625l2.804-1.381c-0.079-0.163-0.156-0.327-0.228-0.494
			l-1.433,0.624l1.431-0.627c-0.779-1.776-1.175-3.67-1.176-5.629c-0.001-3.56,1.501-7.058,4.223-9.836L74.453,5.866
			c2.43-1.797,5.313-2.741,8.348-2.741c0.004,0,0.007,0,0.012,0c3.751,0,7.281,1.45,9.936,4.102
			c2.659,2.655,4.123,6.178,4.127,9.935c0.001,3.034-0.944,5.917-2.741,8.35L75.478,44.19l-0.144,0.169
			C72.648,47.94,68.548,50,64.084,50c-0.003,0-0.006,0-0.011,0c-1.948,0-3.836-0.396-5.609-1.169L57.215,51.7
			c2.171,0.942,4.477,1.425,6.859,1.425c0.004,0,0.008,0,0.013,0c5.419,0,10.397-2.484,13.677-6.798l18.661-18.688l0.144-0.169
			c2.247-2.995,3.435-6.564,3.432-10.319c-0.004-4.59-1.794-8.892-5.043-12.137C91.711,1.773,87.398,0,82.812,0z"/>
		<path d="M34.864,62.971l28.105-28.144l2.211,2.208L37.076,65.178L34.864,62.971z"/>
	</g>
</g>
</svg>
