<?xml version="1.0" encoding="utf-8"?>
<!-- Generator: Adobe Illustrator 16.0.4, SVG Export Plug-In . SVG Version: 6.00 Build 0)  -->
<!DOCTYPE svg PUBLIC "-//W3C//DTD SVG 1.1//EN" "http://www.w3.org/Graphics/SVG/1.1/DTD/svg11.dtd">
<svg version="1.1" id="Capa_1" xmlns="http://www.w3.org/2000/svg" xmlns:xlink="http://www.w3.org/1999/xlink" x="0px" y="0px"
	 width="100px" height="100px" viewBox="0 0 100 100" enable-background="new 0 0 100 100" xml:space="preserve">
<g>
	<g id="group-31svg">
		<path id="path-1_75_" d="M80.995,100H17.449c-6.688,0-12.1-5.969-12.1-12.521V14.327C5.349,6.16,11.752,0,21.143,0h14.779
			c8.841,0,15.458,5.757,15.458,14.327v1.478c0,0.789,0.867,1.656,2.275,1.656h27.339c6.259,0,11.655,5.324,11.655,12.384v57.635
			C92.65,94.617,87.254,100,80.995,100z M21.143,4.762c-5.676,0-11.032,3.353-11.032,9.565v73.152c0,3.915,3.292,7.759,7.338,7.759
			h63.546c4.038,0,6.894-3.998,6.894-7.759V29.844c0-3.787-2.812-7.622-6.894-7.622H53.656c-3.727,0-7.037-2.579-7.037-6.417v-1.478
			c0-5.898-4.518-9.565-10.697-9.565H21.143z"/>
		<path id="path-2_74_" d="M80.446,100H18.957c-1.314,0-2.381-1.066-2.381-2.381s1.067-2.381,2.381-2.381h1.51
			c5.536,0,8.692-5.254,8.692-10.461V44.622c0-5.803,4.783-9.702,12.906-9.702h38.381c7.327,0,12.204,3.535,12.204,9.702v42.857
			C92.65,94.385,86.802,100,80.446,100z M30.084,95.238h50.362c4.179,0,7.442-4.027,7.442-7.759V44.622
			c0-1.478-0.678-4.939-7.442-4.939H42.065c-3.278,0-8.145,1.04-8.145,4.939v40.155C33.92,88.982,32.087,92.59,30.084,95.238z"/>
	</g>
</g>
</svg>
