<?xml version="1.0" encoding="utf-8"?>
<!-- Generator: Adobe Illustrator 16.0.4, SVG Export Plug-In . SVG Version: 6.00 Build 0)  -->
<!DOCTYPE svg PUBLIC "-//W3C//DTD SVG 1.1//EN" "http://www.w3.org/Graphics/SVG/1.1/DTD/svg11.dtd">
<svg version="1.1" id="Layer_1" xmlns="http://www.w3.org/2000/svg" xmlns:xlink="http://www.w3.org/1999/xlink" x="0px" y="0px"
	 width="100px" height="100px" viewBox="0 0 100 100" enable-background="new 0 0 100 100" xml:space="preserve">
<g>
	<g>
		<g id="group-5svg">
			<path id="path-1_45_" d="M58.828,100H26.016C18.062,100,12.5,93.376,12.5,84.92V15.08C12.5,6.624,18.062,0,26.016,0h45.312
				C79.732,0,87.5,6.906,87.5,15.08v50.684c0,0.549-0.521,1.08-0.862,1.508L60.809,99.127C60.364,99.68,59.533,100,58.828,100z
				 M26.016,4.762c-5.413,0-8.828,4.435-8.828,10.318v69.84c0,5.883,3.416,10.318,8.828,10.318h31.701l25.096-30.324V15.08
				c0-5.497-5.722-10.318-11.484-10.318H26.016z"/>
			<path id="path-2_45_" d="M59.489,99.658c-0.257,0-0.181-0.041-0.431-0.129c-0.944-0.332-1.246-1.236-1.246-2.252V74.571
				c0-4.49,2.828-9.491,7.846-9.491h16.839c0.896,0,1.714,0.518,2.106,1.339c0.393,0.817,0.291,1.794-0.263,2.511L61.334,98.748
				C60.881,99.334,60.195,99.658,59.489,99.658z M65.658,69.842c-2.119,0-3.158,2.588-3.158,4.729v15.81l15.182-20.539H65.658z"/>
			<path id="path-3_44_" d="M61.247,42.857c-0.025,0-0.054,0-0.08,0c-0.647,0-1.257-0.056-1.686-0.552l-6.003-6.857
				c-0.852-0.991-0.752-2.429,0.223-3.293c0.976-0.867,2.455-0.73,3.307,0.26l4.355,5.084l10.34-10.494
				c0.914-0.929,2.398-0.925,3.314,0.005s0.916,2.438,0,3.368L62.904,42.421C62.465,42.868,61.869,42.857,61.247,42.857z"/>
		</g>
	</g>
</g>
</svg>
