<?xml version="1.0" encoding="utf-8"?>
<!-- Generator: Adobe Illustrator 16.0.4, SVG Export Plug-In . SVG Version: 6.00 Build 0)  -->
<!DOCTYPE svg PUBLIC "-//W3C//DTD SVG 1.1//EN" "http://www.w3.org/Graphics/SVG/1.1/DTD/svg11.dtd">
<svg version="1.1" id="Layer_1" xmlns="http://www.w3.org/2000/svg" xmlns:xlink="http://www.w3.org/1999/xlink" x="0px" y="0px"
	 width="100px" height="100px" viewBox="0 0 100 100" enable-background="new 0 0 100 100" xml:space="preserve">
<g>
	<path d="M79.951,0H67.488c-1.4,0-2.561,1.01-2.799,2.34H33.311C33.072,1.01,31.912,0,30.512,0H18.049
		c-1.572,0-2.846,1.274-2.846,2.846v23.807c0,1.572,1.274,2.846,2.846,2.846h12.463c1.399,0,2.56-1.01,2.799-2.34h3.974v66.652
		c0,3.414,2.776,6.189,6.189,6.189h11.052c3.413,0,6.189-2.775,6.189-6.189V27.158h3.974c0.239,1.33,1.399,2.34,2.799,2.34h12.463
		c1.572,0,2.846-1.274,2.846-2.846V2.846C82.797,1.274,81.523,0,79.951,0z M54.525,94.309H43.474c-0.274,0-0.497-0.224-0.497-0.498
		V27.158h12.047v66.652C55.023,94.085,54.8,94.309,54.525,94.309z M33.358,8.032h31.283v13.434H33.358V8.032z M20.895,5.692h6.252
		v18.115h-6.252V5.692z M77.105,23.807h-6.252V5.692h6.252V23.807z"/>
</g>
</svg>
